<svg version="1.1" xmlns="http://www.w3.org/2000/svg" width="300" height="150" aria-labelledby="desc" role="img">
    <desc id="desc">The messy directed graph where node 1 points to nodes 2 and 3. Node 2 points to node 4 and 5, and node 4 points to node 5.</desc>

    
  <defs>
    <style>
      .cls-1 {
        fill: none;
        stroke: white;
        stroke-miterlimit: 10;
      }

      .cls-2 {
        font-size: 12px;
        font-family: OpenSans-Regular, Open Sans;
      }

      .cls-2, .cls-3 {
        fill: white;
      }
    </style>
  </defs>
  <g>
    <circle class="cls-1" cx="118.9635" cy="59.5" r="12.5"/>
    <text class="cls-2" transform="translate(115.5074 63.3701)">2</text>
    <circle class="cls-1" cx="130.9635" cy="115.5" r="12.5"/>
    <text class="cls-2" transform="translate(127.5074 119.3701)">3</text>
    <circle class="cls-1" cx="205.9635" cy="83.5" r="12.5"/>
    <text class="cls-2" transform="translate(202.5074 87.3701)">4</text>
    <g>
      <circle class="cls-1" cx="55.9635" cy="59.5" r="12.5"/>
      <text class="cls-2" transform="translate(52.5075 62.8701)">1</text>
    </g>
    <circle class="cls-1" cx="243.9635" cy="34.5" r="12.5"/>
    <text class="cls-2" transform="translate(240.6324 37.8701)">5</text>
    <polygon class="cls-3" points="99.715 63.397 103.09 61.448 106.464 59.5 103.09 57.551 99.715 55.603 99.715 58.937 68.464 58.937 68.464 60.062 99.715 60.062 99.715 63.397"/>
    <polygon class="cls-3" points="225.852 42.096 228.78 39.524 231.705 36.952 228.016 35.702 224.324 34.454 224.978 37.723 131.111 56.497 131.332 57.6 225.198 38.826 225.852 42.096"/>
    <polygon class="cls-3" points="186.348 82.131 190.12 81.15 193.889 80.169 191.156 77.394 188.42 74.618 187.534 77.832 131.187 62.288 130.888 63.373 187.235 78.917 186.348 82.131"/>
    <polygon class="cls-3" points="235.254 52.089 235.783 48.228 236.31 44.368 232.703 45.84 229.095 47.313 231.73 49.356 213.172 73.287 214.061 73.976 232.619 50.046 235.254 52.089"/>
    <polygon class="cls-3" points="112.672 108.366 116.564 108.552 120.456 108.736 118.671 105.273 116.886 101.809 115.083 104.614 61.685 70.295 61.077 71.241 114.475 105.561 112.672 108.366"/>
    <polygon class="cls-3" points="189.787 94.639 192.126 91.522 194.464 88.406 190.597 87.938 186.728 87.47 188.036 90.537 142.242 110.076 142.683 111.111 188.478 91.572 189.787 94.639"/>
  </g>

</svg>
