<?xml version="1.0" encoding="utf-8"?>
<!-- Generator: Adobe Illustrator 19.0.0, SVG Export Plug-In . SVG Version: 6.00 Build 0)  -->
<svg version="1.1" id="layer" xmlns="http://www.w3.org/2000/svg" xmlns:xlink="http://www.w3.org/1999/xlink" x="0px" y="0px"
	 viewBox="-153 -46 652 652" style="enable-background:new -153 -46 652 652;" xml:space="preserve">
<path id="XMLID_1_" d="M-117.5,218.4c1.6,1,2.4,2.2,2.4,3.8v105.7c0,1.3-0.8,2.6-2.5,3.7c-1.6,1.1-3.5,1.7-5.7,1.7
	c-2.3,0-4.1-0.6-5.6-1.7c-1.5-1.1-2.3-2.4-2.3-3.7V222.1c0-1.5,0.7-2.8,2.2-3.8c1.5-1,3.4-1.5,5.7-1.5
	C-121,216.9-119.1,217.4-117.5,218.4 M14.8,303c0,9.1,2.6,16.5,7.9,22c5.2,5.6,13.1,8.3,23.6,8.3c6.6,0,12.3-1.2,16.9-3.7
	c4.6-2.4,7-5.1,7-7.9c0-1.8-0.6-3.6-1.9-5.2c-1.3-1.6-2.9-2.5-4.9-2.5c-0.6,0-2.5,0.8-5.5,2.5c-3.1,1.6-6.5,2.4-10.4,2.4
	c-11.2,0-16.8-5.4-16.8-16.1v-13.6c0-10.7,5.6-16.1,16.7-16.1c3.7,0,7.1,0.8,10.2,2.3c3.1,1.5,4.9,2.3,5.4,2.3
	c1.7,0,3.2-0.9,4.5-2.6c1.2-1.7,1.9-3.4,1.9-5.2c0-2.8-2.2-5.4-6.7-7.7c-4.4-2.3-9.9-3.4-16.5-3.4c-10.4,0-18.2,2.8-23.4,8.4
	c-5.3,5.6-7.9,12.9-7.9,21.9V303 M-104.3,273.8c-1,0.9-1.4,2.3-1.2,4.1c0.2,1.9,1,3.6,2.5,5.3c1.5,1.7,3.2,2.7,5.2,3.2
	c1.9,0.4,3.4,0.2,4.3-0.7l8.5-5.3v47.4c0,1.3,0.7,2.5,2.2,3.7c1.5,1.1,3.3,1.7,5.6,1.7c2.2,0,4.2-0.6,5.8-1.7
	c1.6-1.1,2.4-2.3,2.4-3.7v-63.7c0-1.5-0.8-2.8-2.4-3.8c-1.6-1-3.5-1.5-5.9-1.5c-2.4,0-4.2,0.5-5.7,1.5L-104.3,273.8z M-40.9,311.2
	c0-3,1.1-5.5,3.4-7.2c2.3-1.7,4.8-2.8,7.7-3.2c2.9-0.4,6.6-0.6,11.1-0.6h3.8v5.6c0,3.7-1.7,7.1-5.2,10.4c-3.5,3.2-7.1,4.9-11,4.9
	c-2.9,0-5.3-0.8-7.1-2.5C-40,316.9-40.9,314.5-40.9,311.2 M-56.9,313.2c0,6.5,1.9,11.5,5.7,14.9c3.8,3.5,8.6,5.2,14.5,5.2
	c8.5,0,16.1-4,22.8-11.9v5.3c0,1.4,0.7,2.7,2.1,3.7c1.4,1.1,3.1,1.6,5.1,1.6c2.2,0,4.1-0.5,5.5-1.6c1.5-1.1,2.2-2.3,2.2-3.7v-38.2
	c0-8.4-2.5-15.5-7.5-21.1c-5-5.6-12.7-8.5-23.1-8.5c-5.4,0-10.6,1-15.5,2.9c-4.9,1.9-7.3,4.2-7.3,6.9c0,2,0.5,3.9,1.6,5.6
	c1.1,1.7,2.5,2.5,4.2,2.5c0.3,0,2.1-0.8,5.4-2.5c3.3-1.7,7.1-2.5,11.4-2.5c5.1,0,8.8,1.7,11.3,5c2.5,3.3,3.7,7.3,3.7,11.9v2.8h-6.7
	c-11.5,0-20.3,1.6-26.3,4.8C-53.9,299.4-56.9,305.1-56.9,313.2 M81.8,326.8c0,1.3,0.7,2.5,2.2,3.7c1.5,1.1,3.3,1.7,5.5,1.7
	c2.2,0,4.1-0.5,5.7-1.7c1.6-1.1,2.4-2.3,2.4-3.7v-19l11.1-10l22.2,33.1c1.1,1.5,2.5,2.3,4.2,2.3c1.9,0,3.9-0.9,5.9-2.7
	c2-1.8,3-3.6,3-5.4c0-0.9-0.3-1.8-0.9-2.7l-23.8-34.4l19.5-17.5c0.9-0.9,1.4-2,1.4-3.3c0-1.8-0.9-3.6-2.6-5.2
	c-1.7-1.6-3.4-2.5-5.1-2.5c-1.3,0-2.4,0.5-3.3,1.4l-31.6,29.3v-67.8c0-1.5-0.8-2.8-2.3-3.7c-1.6-1-3.5-1.5-5.8-1.5
	c-2.3,0-4.2,0.5-5.6,1.5c-1.4,1-2.1,2.2-2.1,3.7V326.8 M166,285.2c0-4.1,1.5-7.5,4.5-10.1c3-2.6,6.7-4,10.9-4c4.3,0,8,1.4,10.9,4.2
	c2.9,2.8,4.4,6.2,4.4,10.2c0,1.8-0.4,3-1.1,3.6c-0.8,0.6-2.2,0.9-4.5,0.9H166V285.2z M150.1,303c0,9.1,3.3,16.3,9.9,21.9
	c6.6,5.6,15,8.4,25.3,8.4c7,0,13-1.3,17.8-3.8c4.8-2.6,7.3-5.1,7.3-7.6c0-1.5-0.6-3.1-1.8-4.7c-1.2-1.6-2.7-2.4-4.4-2.4
	c-0.8,0-3,1-6.7,2.9c-3.7,1.9-7.6,2.9-11.7,2.9c-5.9,0-10.6-1.5-14.2-4.5c-3.6-3-5.5-7.1-5.5-12.2v-3.5h31.9c2.1,0,3.8-0.1,5.1-0.3
	c1.3-0.2,2.7-0.7,4.2-1.5c1.5-0.8,2.6-2.1,3.3-4c0.7-1.9,1.1-4.4,1.1-7.5c0-8.1-2.9-14.7-8.9-20c-5.9-5.3-13-7.9-21.3-7.9
	c-8.7,0-16.1,2.9-22.2,8.8c-6.2,5.9-9.3,12.8-9.3,20.8V303 M224.5,326.8c0,1.3,0.7,2.5,2.2,3.7c1.5,1.1,3.3,1.7,5.6,1.7
	c2.2,0,4.1-0.5,5.7-1.7c1.6-1.1,2.4-2.3,2.4-3.6v-31.2c0-6.6,1.9-11.9,5.5-16.1c3.7-4.2,7.9-6.2,12.8-6.2h4.9c1.6,0,3-0.7,4.2-2.2
	c1.2-1.4,1.8-3.1,1.8-5.1c0-2-0.6-3.6-1.8-5c-1.2-1.4-2.6-2.1-4.2-2.1h-4.9c-4.1,0-7.9,1.3-11.4,3.8c-3.5,2.5-6.1,5.6-7.8,9.1v-6.8
	c0-1.5-0.7-2.8-2.1-3.8c-1.4-1-3.1-1.5-5.1-1.5c-2.3,0-4.1,0.5-5.6,1.5c-1.5,1-2.2,2.2-2.2,3.7V326.8 M283.9,287.7
	c0-5,1.8-9.4,5.5-13.4c3.7-3.9,8.1-5.9,13.3-5.9c5.1,0,9.6,2,13.4,5.9c3.8,3.9,5.7,8.4,5.7,13.4v16.5c0,5.2-1.9,9.7-5.6,13.7
	c-3.7,4-8.2,6-13.5,6c-5.2,0-9.6-2-13.3-6c-3.7-4-5.5-8.6-5.5-13.7V287.7z M274.1,304.2c0,7.6,2.9,14.4,8.6,20.2
	c5.7,5.8,12.4,8.8,20,8.8c7.7,0,14.4-2.9,20.2-8.8c5.8-5.9,8.7-12.6,8.7-20.2v-16.6c0-7.8-2.9-14.5-8.6-20.1
	c-5.8-5.6-12.5-8.4-20.3-8.4c-7.8,0-14.5,2.8-20.1,8.5c-5.6,5.6-8.5,12.3-8.5,20V304.2 M343.6,328.1c0,1,0.5,1.9,1.4,2.7
	c0.9,0.8,2.1,1.2,3.5,1.2c1.3,0,2.5-0.4,3.5-1.2c1-0.8,1.5-1.7,1.5-2.7v-40.4c0-5.8,1.8-10.4,5.4-14c3.6-3.5,7.8-5.3,12.6-5.3
	c5.1,0,9.6,2,13.3,5.9c3.7,3.9,5.6,8.4,5.6,13.4v40.4c0,1.2,0.5,2.2,1.5,2.9c1,0.7,2.1,1.1,3.3,1.1c1.3,0,2.5-0.4,3.5-1.1
	c1-0.7,1.5-1.7,1.5-2.9v-40.5c0-7.8-2.7-14.5-8-20.1c-5.3-5.6-11.6-8.4-18.9-8.4c-4.7,0-8.9,1.1-12.4,3.4c-3.6,2.3-6.2,5-7.9,8.3
	v-7.1c0-1-0.4-1.9-1.4-2.6c-0.9-0.7-2-1.1-3.2-1.1c-1.4,0-2.6,0.3-3.5,1c-0.9,0.7-1.4,1.5-1.4,2.7V328.1 M421.4,286
	c0-5.1,1.8-9.4,5.5-13c3.7-3.6,8.1-5.4,13.4-5.4c5.4,0,10,1.9,13.5,5.8c3.6,3.8,5.4,8.3,5.4,13.3c0,2.1-0.5,3.5-1.5,4.2
	c-1,0.7-3,1-6,1h-30.3V286z M411.6,304.2c0,8.7,3,15.6,9.1,21c6,5.3,13.9,8,23.5,8c6.4,0,11.9-1.2,16.2-3.4c4.3-2.3,6.5-4.5,6.5-6.6
	c0-1-0.4-2.1-1.3-3.1c-0.8-1.1-1.8-1.6-2.9-1.6c-0.8,0-1.9,0.5-3.3,1.5c-1.3,1-3.3,2-5.9,3c-2.6,1-5.6,1.5-9,1.5
	c-6.8,0-12.3-1.8-16.6-5.4c-4.3-3.6-6.4-8.4-6.4-14.4V299h34.2c2.1,0,3.8-0.1,5-0.3c1.2-0.2,2.5-0.6,4-1.4c1.5-0.7,2.5-1.9,3.2-3.6
	c0.6-1.7,1-4,1-6.8c0-7.9-2.8-14.5-8.4-19.8c-5.6-5.3-12.2-7.9-19.9-7.9c-8,0-14.8,2.8-20.4,8.3c-5.6,5.5-8.5,12.1-8.5,19.7V304.2"
	/>
</svg>
