<svg version="1.1" xmlns="http://www.w3.org/2000/svg" width="300" height="270" aria-labelledby="desc" role="img">
    <desc id="desc">The topologically sorted directed graph where node 1 points to nodes 2 and 3. Node 2 points to node 4 and 5, and node 4 points to node 5.</desc>

    
    <style>
    </style>
    

    <defs>
    <style>
      .cls-1 {
        fill: none;
        stroke: white;
        stroke-miterlimit: 10;
      }

      .cls-2 {
        font-size: 12px;
        font-family: OpenSans-Regular, Open Sans;
      }

      .cls-2, .cls-3 {
        fill: white;
      }
    </style>
  </defs>
  <g>
    <g>
      <circle class="cls-1" cx="156.9699" cy="35" r="12.5"/>
      <text class="cls-2" transform="translate(153.5129 38.3701)">1</text>
    </g>
    <g>
      <circle class="cls-1" cx="157.0309" cy="85" r="12.5"/>
      <text class="cls-2" transform="translate(153.5749 88.3701)">2</text>
    </g>
    <g>
      <circle class="cls-1" cx="157.0309" cy="135" r="12.5"/>
      <text class="cls-2" transform="translate(153.5749 138.3701)">3</text>
    </g>
    <g>
      <circle class="cls-1" cx="157.0309" cy="185" r="12.5"/>
      <text class="cls-2" transform="translate(153.5749 188.3701)">4</text>
    </g>
    <g>
      <circle class="cls-1" cx="157.0309" cy="235" r="12.5"/>
      <text class="cls-2" transform="translate(153.5749 238.3701)">5</text>
    </g>
    <polygon class="cls-3" points="153.06 66.252 155.008 69.627 156.957 73 158.905 69.627 160.854 66.252 157.52 66.252 157.52 47.5 156.395 47.5 156.395 66.252 153.06 66.252"/>
    <polygon class="cls-3" points="153.06 116.252 155.008 119.627 156.957 123 158.905 119.627 160.854 116.252 157.52 116.252 157.52 97.5 156.395 97.5 156.395 116.252 153.06 116.252"/>
    <polygon class="cls-3" points="153.06 166.252 155.008 169.627 156.957 173 158.905 169.627 160.854 166.252 157.52 166.252 157.52 147.5 156.395 147.5 156.395 166.252 153.06 166.252"/>
    <polygon class="cls-3" points="153.06 216.252 155.008 219.627 156.957 223 158.905 219.627 160.854 216.252 157.52 216.252 157.52 197.5 156.395 197.5 156.395 216.252 153.06 216.252"/>
    <polygon class="cls-3" points="137.283 138.897 140.658 136.948 143.285 135.431 144.031 135 143.285 134.569 140.658 133.051 137.283 131.103 137.283 134.437 135.753 134.437 132.775 134.437 132.06 134.437 131.594 134.438 131.594 132.759 131.594 126.356 131.594 99.622 131.594 46.156 131.594 40.117 131.594 37.357 131.594 36.066 131.594 35.743 131.594 35.564 131.737 35.563 132.383 35.563 144.031 35.563 144.031 34.438 131.524 34.438 130.469 34.438 130.469 34.462 130.469 34.678 130.469 35.11 130.469 36.838 130.469 40.117 130.469 46.156 130.469 99.622 130.469 126.356 130.469 133.318 130.469 135.562 131.092 135.562 132.048 135.562 135.753 135.562 137.283 135.562 137.283 138.897"/>
    <polygon class="cls-3" points="137.313 189.459 140.688 187.511 143.315 185.993 144.062 185.562 143.315 185.131 140.688 183.614 137.313 181.665 137.313 185 135.784 185 119.212 185 118.498 185 118.031 185 118.031 183.322 118.031 176.918 118.031 150.185 118.031 96.718 118.031 90.679 118.031 87.92 118.031 86.628 118.031 86.305 118.031 86.126 118.174 86.125 118.82 86.125 144.531 86.125 144.531 85 117.961 85 116.906 85 116.906 85.025 116.906 85.241 116.906 85.672 116.906 87.4 116.906 90.679 116.906 96.718 116.906 150.185 116.906 176.918 116.906 183.88 116.906 186.125 117.53 186.125 118.486 186.125 135.784 186.125 137.313 186.125 137.313 189.459"/>
    <polygon class="cls-3" points="176.279 231.603 172.904 233.552 170.055 235.197 169.531 235.5 170.055 235.803 172.904 237.449 176.279 239.397 176.279 236.063 179.419 236.063 182.322 236.063 183.094 236.063 183.094 235.928 183.094 235.746 183.094 235.383 183.094 233.932 183.094 228.564 183.094 218.418 183.094 177.83 183.094 96.656 183.094 90.617 183.094 87.337 183.094 85.61 183.094 85.178 183.094 84.962 183.094 84.937 182.038 84.937 169.531 84.937 169.531 86.062 181.18 86.062 181.969 86.062 181.969 86.081 181.969 86.242 181.969 86.565 181.969 87.857 181.969 90.617 181.969 96.656 181.969 177.83 181.969 218.418 181.969 228.564 181.969 233.344 181.969 234.938 181.934 234.938 181.391 234.938 179.221 234.938 176.279 234.938 176.279 231.603"/>
  </g>

</svg>
